<svg xmlns="http://www.w3.org/2000/svg" viewBox="0 0 945.46 61.62">
  <defs>
    <style>
      .cls-1{
      fill:#fff;
    }
  </style>
  </defs>
  <g id="Camada_2" data-name="Camada 2">
    <g id="Camada_1-2" data-name="Camada 1">
      <path class="cls-1" d="M0,31.1C0,13.25,13.66.59,32.28.59c10.81,0,19.53,3.94,25.23,11.06L47,21.21c-3.69-4.44-8.22-6.87-13.84-6.87-9.64,0-16.34,6.7-16.34,16.76s6.7,16.77,16.34,16.77c5.62,0,10.15-2.43,13.84-6.88l10.56,9.56c-5.7,7.13-14.42,11.07-25.23,11.07C13.66,61.62,0,49,0,31.1Z" />
      <path class="cls-1" d="M60.61,31.1C60.61,13.5,74.44.59,93.22.59S125.83,13.5,125.83,31.1,112,61.62,93.22,61.62,60.61,48.71,60.61,31.1Zm48.46,0c0-10.14-7-16.76-15.85-16.76S77.38,21,77.38,31.1s7,16.77,15.84,16.77S109.07,41.25,109.07,31.1Z" />
      <path class="cls-1" d="M190.38,1.76V60.44H176.72L150.81,29.17V60.44H134.55V1.76h13.67L174.12,33V1.76Z" />
      <path class="cls-1" d="M199.1,31.1C199.1,13.25,212.77.59,231.38.59c10.81,0,19.53,3.94,25.23,11.06l-10.56,9.56c-3.69-4.44-8.22-6.87-13.83-6.87-9.65,0-16.35,6.7-16.35,16.76s6.7,16.77,16.35,16.77c5.61,0,10.14-2.43,13.83-6.88l10.56,9.56c-5.7,7.13-14.42,11.07-25.23,11.07C212.77,61.62,199.1,49,199.1,31.1Z" />
      <path class="cls-1" d="M311.1,47.62V60.44H264V1.76h46V14.59H280.42v9.89h26.07V36.89H280.42V47.62Z" />
      <path class="cls-1" d="M320.32,1.76h16.6V60.44h-16.6Z" />
      <path class="cls-1" d="M361.23,14.92h-18V1.76h52.56V14.92H377.83V60.44h-16.6Z" />
      <path class="cls-1" d="M400.55,34.29V1.76h16.6v32c0,10.05,4.19,14.08,11.15,14.08s11.07-4,11.07-14.08v-32h16.34V34.29c0,17.52-10.23,27.33-27.58,27.33S400.55,51.81,400.55,34.29Z" />
      <path class="cls-1" d="M530.66,49H505.84l-4.61,11.4H484.3L510.2,1.76h16.35l26,58.68H535.27ZM525.8,36.8,518.25,18,510.71,36.8Z" />
      <path class="cls-1" d="M557.23,1.76h16.6V60.44h-16.6Z" />
      <path class="cls-1" d="M611.3,44.85h-9V60.44h-16.6V1.76h26.83c16,0,26.07,8.3,26.07,21.71,0,8.64-4.19,15-11.49,18.53l12.66,18.44H622Zm.17-30h-9.22V32h9.22c6.88,0,10.31-3.18,10.31-8.55S618.35,14.84,611.47,14.84Z" />
      <path class="cls-1" d="M684.57,14.92h-18V1.76h52.56V14.92H701.17V60.44h-16.6Z" />
      <path class="cls-1" d="M772.43,47.62V60.44H725.31V1.76h46V14.59H741.75v9.89h26.07V36.89H741.75V47.62Z" />
      <path class="cls-1" d="M778.55,31.1c0-17.85,13.66-30.51,32.27-30.51,10.82,0,19.54,3.94,25.24,11.06l-10.57,9.56c-3.68-4.44-8.21-6.87-13.83-6.87-9.64,0-16.35,6.7-16.35,16.76S802,47.87,811.66,47.87c5.62,0,10.15-2.43,13.83-6.88l10.57,9.56c-5.7,7.13-14.42,11.07-25.24,11.07C792.21,61.62,778.55,49,778.55,31.1Z" />
      <path class="cls-1" d="M899.27,1.76V60.44h-16.6V37.56H860V60.44H843.44V1.76H860v22h22.64v-22Z" />
      <path class="cls-1" d="M936.36,2.39A17,17,0,0,1,943.07,9a19.39,19.39,0,0,1,2.39,9.69,19.47,19.47,0,0,1-2.39,9.64A16.86,16.86,0,0,1,936.36,35a21.14,21.14,0,0,1-19.53,0,17.16,17.16,0,0,1-6.75-6.66,19.18,19.18,0,0,1-2.43-9.64A19.1,19.1,0,0,1,910.08,9a17.26,17.26,0,0,1,6.75-6.62,21.14,21.14,0,0,1,19.53,0Zm-.25,25.86a13.16,13.16,0,0,0,3.57-9.55,13.13,13.13,0,0,0-3.57-9.6,12.7,12.7,0,0,0-9.51-3.65q-6,0-9.6,3.6t-3.56,9.65a13.09,13.09,0,0,0,3.6,9.55,12.75,12.75,0,0,0,9.56,3.69A12.61,12.61,0,0,0,936.11,28.25Zm-1.84-9.93a5.64,5.64,0,0,1-2.22,2.05L936,27.25h-7.21l-3.1-6.12h-.42v6.12h-6.71V9.64h10.06a6.86,6.86,0,0,1,4.69,1.55,5.25,5.25,0,0,1,1.76,4.15A5.6,5.6,0,0,1,934.27,18.32ZM925,17.1h2A1,1,0,0,0,928.11,16,1,1,0,0,0,927,14.92h-2Z" />
    </g>
  </g>
</svg>